<?xml version="1.0" standalone="no"?>
<!DOCTYPE svg PUBLIC "-//W3C//DTD SVG 20010904//EN"
 "http://www.w3.org/TR/2001/REC-SVG-20010904/DTD/svg10.dtd">
<svg version="1.0" xmlns="http://www.w3.org/2000/svg"
 width="700.000000pt" height="700.000000pt" viewBox="0 0 700.000000 700.000000"
 preserveAspectRatio="xMidYMid meet">
<metadata>
Created by potrace 1.14, written by Peter Selinger 2001-2017
</metadata>
<g transform="translate(0.000000,700.000000) scale(0.100000,-0.100000)"
fill="#000000" stroke="none">
<path d="M3258 6645 c-2 -2 -34 -6 -73 -9 -63 -6 -195 -23 -235 -31 -8 -2 -44
-8 -80 -15 -313 -59 -687 -204 -990 -383 -743 -439 -1294 -1201 -1471 -2032
-63 -298 -86 -603 -65 -875 12 -160 14 -171 31 -284 78 -515 278 -983 606
-1421 95 -127 144 -182 293 -330 308 -305 658 -535 1056 -693 276 -109 529
-171 855 -209 91 -10 539 -10 630 0 96 11 205 27 290 42 243 44 557 151 808
276 641 321 1151 842 1453 1486 50 107 141 340 159 408 5 17 10 35 11 40 2 6
12 44 23 85 10 41 21 82 25 90 3 8 8 33 11 55 3 22 10 56 15 75 4 19 11 53 14
75 3 22 7 56 10 75 10 68 16 126 22 235 11 198 11 195 -26 195 -24 0 -30 -4
-31 -22 -3 -124 -17 -316 -24 -353 -2 -11 -7 -42 -10 -70 -3 -27 -8 -57 -10
-65 -2 -8 -6 -32 -10 -53 -10 -74 -64 -282 -99 -390 -228 -693 -685 -1275
-1306 -1664 -422 -264 -926 -428 -1415 -460 -176 -12 -488 -6 -585 11 -14 3
-47 7 -75 10 -27 4 -61 8 -75 11 -14 3 -36 7 -50 9 -83 14 -239 53 -338 82
-747 227 -1382 727 -1778 1401 -228 386 -371 839 -411 1298 -14 158 -7 507 13
642 34 238 89 465 159 658 314 867 1003 1551 1872 1861 117 41 352 107 423
118 19 3 46 8 60 11 45 9 80 15 200 31 180 23 568 23 730 -1 202 -30 199 -29
250 -40 14 -3 35 -7 47 -10 64 -12 262 -69 358 -103 451 -160 829 -398 1164
-731 127 -127 153 -156 254 -285 348 -443 572 -987 633 -1541 4 -38 9 -73 10
-77 1 -5 2 -24 3 -43 1 -30 4 -34 24 -31 12 3 27 5 34 5 8 1 11 13 8 34 -4 35
-15 136 -20 177 -4 44 -26 174 -35 210 -5 19 -11 46 -14 60 -41 232 -185 603
-334 865 -418 732 -1144 1289 -1947 1494 -170 43 -260 59 -505 90 -64 8 -534
13 -542 6z"/>
<path d="M3749 6182 c-49 -25 -53 -67 -8 -104 27 -22 36 -25 53 -16 63 32 70
80 18 117 -28 19 -30 19 -63 3z"/>
<path d="M3101 6053 c-13 -3 -42 -24 -66 -47 -56 -56 -67 -116 -35 -179 12
-23 32 -50 43 -61 34 -29 106 -59 120 -49 7 5 22 10 35 11 63 3 140 111 127
174 -26 120 -106 173 -224 151z"/>
<path d="M2452 6000 c-12 -12 -22 -22 -22 -23 -13 -68 -11 -77 13 -86 49 -19
91 -20 109 -4 27 24 23 79 -7 108 -29 30 -64 32 -93 5z"/>
<path d="M3653 5926 c-78 -25 -130 -66 -159 -126 -68 -137 -26 -277 106 -353
92 -53 199 -44 280 26 61 52 82 84 95 145 25 121 -30 232 -145 291 -49 26
-126 33 -177 17z"/>
<path d="M4300 5913 c-105 -33 -144 -91 -126 -187 14 -73 105 -143 165 -126
17 5 31 7 31 4 0 -10 57 26 82 53 57 59 43 186 -24 234 -29 21 -96 32 -128 22z"/>
<path d="M2570 5774 c-98 -45 -148 -110 -166 -214 -10 -57 -9 -71 8 -115 47
-122 115 -175 235 -183 89 -6 140 12 201 71 73 70 97 143 80 239 -20 108 -81
176 -190 209 -78 25 -102 24 -168 -7z"/>
<path d="M4958 5713 c-28 -7 -36 -69 -11 -94 6 -6 30 -9 54 -7 40 3 44 6 47
31 7 57 -31 86 -90 70z"/>
<path d="M3150 5653 c-51 -18 -108 -67 -130 -109 -52 -106 -18 -226 84 -289
84 -51 196 -34 269 43 71 75 69 222 -6 293 -52 51 -162 82 -217 62z"/>
<path d="M2012 5613 c-13 -2 -41 -22 -62 -43 -67 -67 -76 -163 -22 -234 35
-45 64 -58 138 -62 71 -3 106 13 148 69 34 45 40 124 13 179 -35 70 -128 110
-215 91z"/>
<path d="M4059 5533 c-43 -22 -61 -40 -86 -83 -79 -132 -8 -288 151 -331 98
-26 233 55 251 151 19 106 8 153 -51 219 -69 76 -168 93 -265 44z"/>
<path d="M4615 5524 c-41 -21 -101 -81 -119 -119 -24 -49 -24 -162 -1 -210 23
-48 94 -121 132 -136 16 -6 58 -11 95 -11 118 -1 223 71 246 167 14 62 8 140
-16 191 -26 53 -94 115 -139 125 -56 13 -167 9 -198 -7z"/>
<path d="M3621 5342 c-76 -29 -97 -102 -55 -184 17 -33 68 -62 98 -55 11 3 31
8 44 11 27 6 45 23 64 61 27 56 6 124 -51 162 -40 27 -43 27 -100 5z"/>
<path d="M2267 5275 c-53 -20 -87 -49 -115 -98 -20 -35 -23 -52 -20 -109 3
-55 9 -75 33 -109 89 -126 296 -109 357 29 22 49 25 121 8 167 -16 42 -68 94
-115 116 -47 22 -95 23 -148 4z"/>
<path d="M1420 5247 c-22 -11 -25 -19 -25 -63 0 -69 13 -82 78 -80 48 1 53 3
69 34 39 79 -41 150 -122 109z"/>
<path d="M5229 5203 c-39 -20 -50 -31 -59 -61 -22 -80 -8 -155 35 -188 106
-81 245 -17 245 111 0 92 -41 142 -127 155 -36 6 -54 3 -94 -17z"/>
<path d="M2756 5187 c-14 -18 -29 -44 -34 -57 -16 -43 17 -125 51 -128 6 0 33
-3 58 -6 41 -5 50 -3 73 21 35 35 43 67 32 133 -7 45 -47 70 -110 70 -39 0
-48 -4 -70 -33z"/>
<path d="M1705 5136 c-114 -55 -160 -133 -153 -259 8 -156 111 -255 268 -256
84 -1 151 29 208 94 134 152 62 389 -134 440 -84 22 -111 19 -189 -19z"/>
<path d="M4393 5046 c-36 -17 -50 -38 -59 -93 -9 -57 24 -130 63 -139 15 -4
33 -11 40 -16 16 -13 95 17 121 46 11 11 25 37 31 58 10 31 9 42 -8 80 -12 24
-30 49 -42 56 -32 20 -109 24 -146 8z"/>
<path d="M3236 5005 c-7 -18 16 -30 40 -21 13 5 14 9 4 21 -16 19 -36 19 -44
0z"/>
<path d="M4915 5010 c-109 -16 -185 -105 -185 -217 0 -82 15 -126 57 -168 61
-61 141 -84 230 -64 164 37 229 267 106 380 -65 61 -126 81 -208 69z"/>
<path d="M3973 4944 c-9 -4 -9 -11 -1 -30 13 -27 30 -31 48 -9 22 26 -11 53
-47 39z"/>
<path d="M2586 4721 c-4 -5 -2 -12 3 -15 5 -4 12 -2 15 3 4 5 2 12 -3 15 -5 4
-12 2 -15 -3z"/>
<path d="M1263 4705 c-50 -21 -91 -74 -104 -133 -9 -47 -8 -57 11 -98 32 -64
65 -101 106 -114 66 -22 162 5 207 59 26 32 30 41 41 109 12 70 -56 165 -127
178 -69 12 -103 12 -134 -1z"/>
<path d="M2134 4705 c-51 -23 -74 -60 -69 -110 7 -83 32 -102 122 -92 27 3 49
6 50 6 2 1 12 21 24 45 18 39 19 49 8 85 -14 46 -25 59 -57 64 -12 2 -25 6
-28 10 -9 9 -12 8 -50 -8z"/>
<path d="M5380 4711 c-117 -25 -212 -153 -196 -267 16 -121 133 -224 254 -224
129 0 258 154 237 283 -24 139 -161 236 -295 208z"/>
<path d="M5796 4691 c-28 -30 -12 -69 32 -77 39 -8 62 11 62 51 0 45 -61 62
-94 26z"/>
<path d="M1674 4532 c-103 -32 -154 -169 -103 -277 72 -153 276 -153 356 -1
23 44 18 141 -9 193 -31 58 -96 93 -169 92 -30 -1 -64 -4 -75 -7z"/>
<path d="M4574 4514 c-8 -32 13 -56 43 -48 47 13 36 74 -13 74 -17 0 -25 -7
-30 -26z"/>
<path d="M4980 4414 c-68 -25 -92 -61 -92 -136 1 -87 54 -138 144 -138 92 0
155 108 117 200 -22 52 -115 94 -169 74z"/>
<path d="M1293 4204 c-130 -48 -212 -199 -177 -329 49 -190 238 -275 413 -185
132 67 183 248 109 380 -35 63 -65 92 -125 121 -56 27 -164 34 -220 13z"/>
<path d="M5324 4140 c-82 -19 -153 -98 -173 -191 -21 -99 37 -212 134 -259 80
-39 184 -24 255 37 48 41 57 57 76 129 25 96 -6 176 -91 242 -64 49 -122 61
-201 42z"/>
<path d="M5765 4117 c-52 -30 -87 -90 -80 -137 10 -57 14 -64 58 -97 42 -31
58 -36 109 -34 38 1 102 61 116 109 28 91 -46 183 -147 182 -9 0 -34 -10 -56
-23z"/>
<path d="M913 4104 c-50 -21 -68 -56 -55 -103 24 -79 89 -97 147 -41 40 39 41
79 5 120 -31 36 -56 42 -97 24z"/>
<path d="M1805 3944 c-87 -45 -98 -97 -36 -163 21 -22 44 -41 51 -41 24 0 88
43 99 67 27 60 10 104 -56 141 -28 15 -22 15 -58 -4z"/>
<path d="M4906 3848 c-16 -23 -11 -38 24 -64 19 -16 33 -9 53 26 16 26 16 30
1 44 -22 23 -60 20 -78 -6z"/>
<path d="M5590 3631 c-43 -14 -84 -38 -112 -68 -30 -31 -68 -129 -68 -174 0
-49 44 -132 90 -172 46 -39 85 -51 166 -51 88 1 169 63 209 157 40 97 -9 224
-112 288 -36 22 -131 33 -173 20z"/>
<path d="M1515 3607 c-37 -18 -66 -49 -94 -102 -33 -63 -36 -98 -12 -149 29
-59 48 -79 98 -105 98 -49 207 -7 258 101 39 85 7 191 -72 238 -47 28 -136 36
-178 17z"/>
<path d="M1095 3583 c-61 -18 -111 -63 -137 -123 -33 -76 -1 -166 79 -221 38
-27 56 -33 95 -32 154 4 242 148 173 283 -20 39 -36 55 -73 74 -68 34 -82 36
-137 19z"/>
<path d="M5127 3548 c-25 -18 -54 -48 -64 -65 -15 -28 -16 -38 -5 -79 16 -59
49 -100 86 -108 52 -11 121 -6 144 10 42 29 68 123 49 177 -13 37 -22 48 -68
76 -48 30 -87 26 -142 -11z"/>
<path d="M6077 3402 c-23 -25 -21 -48 5 -66 42 -29 87 26 52 65 -21 24 -36 24
-57 1z"/>
<path d="M1411 3179 c-56 -11 -124 -51 -155 -92 -112 -146 -82 -329 68 -428
42 -27 62 -33 122 -37 119 -8 203 33 264 128 47 73 58 142 36 224 -39 144
-187 235 -335 205z"/>
<path d="M5256 3155 c-95 -34 -158 -121 -162 -226 -4 -108 62 -202 169 -239
71 -25 83 -25 154 1 182 67 226 299 81 423 -65 56 -157 71 -242 41z"/>
<path d="M1840 3112 c-29 -24 -38 -93 -16 -126 9 -14 34 -30 56 -37 33 -10 43
-9 65 5 14 9 33 33 42 52 16 33 16 37 -1 69 -27 50 -105 70 -146 37z"/>
<path d="M4887 3108 c-25 -19 -28 -54 -8 -80 16 -19 23 -20 52 -12 25 7 35 16
37 34 5 46 -47 83 -81 58z"/>
<path d="M5673 2878 c-34 -34 -37 -42 -34 -85 6 -95 47 -143 124 -143 38 0
107 25 107 40 0 4 8 16 18 28 12 13 18 34 16 59 -2 58 -11 79 -50 113 -32 27
-42 31 -90 29 -47 -2 -57 -7 -91 -41z"/>
<path d="M985 2840 c-16 -11 -30 -23 -31 -27 0 -5 -4 -24 -8 -44 -10 -47 3
-72 49 -93 53 -26 95 -18 122 23 33 49 30 86 -11 127 -40 40 -76 44 -121 14z"/>
<path d="M1812 2719 c-44 -22 -94 -77 -97 -107 -1 -9 -5 -29 -10 -44 -8 -31 9
-92 37 -128 66 -86 216 -92 284 -12 29 33 58 115 49 141 -3 11 -8 29 -10 41
-19 100 -156 159 -253 109z"/>
<path d="M4871 2722 c-56 -28 -75 -63 -74 -133 1 -71 19 -102 79 -136 48 -28
73 -28 127 -4 84 38 115 101 90 184 -15 52 -22 62 -63 90 -32 22 -114 22 -159
-1z"/>
<path d="M5275 2571 c-16 -4 -41 -13 -55 -20 -31 -17 -90 -72 -90 -85 0 -5 -7
-17 -16 -27 -20 -22 -21 -130 -2 -174 41 -94 99 -135 214 -150 36 -5 124 31
160 66 45 44 78 130 70 187 -11 79 -60 151 -127 187 -33 18 -115 26 -154 16z"/>
<path d="M1504 2514 c-5 -2 -28 -8 -51 -14 -85 -22 -132 -86 -139 -191 -4 -50
-1 -60 30 -103 40 -56 77 -81 134 -91 93 -15 201 55 221 145 19 86 -4 159 -63
206 -31 25 -110 54 -132 48z"/>
<path d="M4494 2457 c-28 -12 -48 -49 -40 -74 4 -11 18 -26 31 -33 32 -17 70
1 84 40 16 49 -28 88 -75 67z"/>
<path d="M2284 2429 c-9 -10 -18 -35 -21 -56 -7 -52 20 -83 71 -83 48 0 72 13
91 50 14 26 13 33 -2 65 -19 40 -14 37 -76 39 -34 2 -52 -3 -63 -15z"/>
<path d="M4736 2315 c-160 -57 -218 -261 -112 -400 34 -45 117 -86 185 -92
111 -10 223 69 256 180 18 61 18 71 4 138 -9 41 -21 62 -58 98 -83 84 -180
110 -275 76z"/>
<path d="M1958 2305 c-124 -33 -206 -155 -195 -290 5 -75 32 -129 89 -182 55
-49 103 -67 188 -66 106 0 195 57 248 158 36 68 37 160 4 225 -69 132 -197
192 -334 155z"/>
<path d="M5690 2125 c-17 -21 -8 -48 18 -52 16 -2 25 3 31 20 5 12 6 28 4 35
-7 16 -38 15 -53 -3z"/>
<path d="M4230 2111 c-36 -19 -83 -95 -82 -135 0 -79 41 -135 120 -162 53 -19
138 8 169 53 84 119 15 261 -127 263 -26 0 -60 -8 -80 -19z"/>
<path d="M2514 2112 c-38 -5 -103 -69 -110 -109 -19 -100 -10 -135 48 -190 43
-41 72 -52 133 -46 35 3 60 12 84 31 61 49 74 75 72 136 -2 85 -20 118 -89
164 -22 14 -89 21 -138 14z"/>
<path d="M3803 2072 c-13 -9 -26 -32 -29 -50 -5 -26 -2 -36 16 -52 42 -36 61
-36 92 1 38 45 36 74 -4 99 -40 24 -47 24 -75 2z"/>
<path d="M2996 2044 c-32 -33 -33 -51 -3 -86 66 -77 180 5 117 85 -29 37 -77
37 -114 1z"/>
<path d="M3390 1890 c-19 -5 -49 -24 -66 -43 -29 -31 -32 -39 -33 -112 l-1
-77 43 -44 c25 -24 53 -44 63 -45 11 0 39 -2 63 -3 34 -2 51 4 82 26 61 44 71
66 67 146 -5 78 -22 113 -68 137 -38 20 -105 26 -150 15z"/>
<path d="M5057 1856 c-34 -23 -68 -100 -56 -126 3 -8 14 -32 22 -52 13 -30 24
-39 59 -49 28 -7 59 -8 88 -3 41 8 47 13 72 62 23 45 25 57 16 90 -18 65 -55
91 -141 97 -16 1 -43 -8 -60 -19z"/>
<path d="M3881 1834 c-64 -20 -107 -52 -149 -113 -36 -52 -37 -56 -37 -141 0
-79 3 -91 30 -136 37 -60 107 -108 179 -125 46 -10 62 -9 112 7 120 37 184
117 192 239 4 63 1 80 -21 127 -49 109 -196 176 -306 142z"/>
<path d="M2881 1824 c-135 -36 -211 -136 -211 -276 0 -101 91 -213 196 -244
145 -42 304 51 335 196 32 151 -61 298 -204 324 -21 4 -44 9 -50 11 -7 2 -36
-3 -66 -11z"/>
<path d="M1684 1806 c-61 -27 -77 -73 -49 -140 16 -39 45 -55 102 -60 35 -2
82 27 86 54 2 8 6 21 10 27 9 15 -11 89 -29 103 -6 6 -20 13 -30 15 -11 2 -28
7 -39 9 -11 3 -34 -1 -51 -8z"/>
<path d="M4476 1792 c-10 -2 -39 -16 -65 -31 -58 -34 -105 -118 -105 -191 0
-67 37 -135 97 -176 49 -34 123 -52 154 -39 10 5 28 9 39 10 24 2 68 31 103
69 48 52 57 187 17 264 -15 29 -75 75 -112 86 -29 9 -105 13 -128 8z"/>
<path d="M2311 1749 c-153 -28 -219 -212 -119 -333 98 -119 283 -93 349 49 10
22 19 57 19 77 0 85 -69 176 -152 199 -24 6 -45 12 -48 13 -3 2 -25 -1 -49 -5z"/>
<path d="M3332 1457 c-108 -66 -131 -213 -49 -312 43 -52 94 -75 170 -75 58 0
69 3 110 35 75 58 87 81 87 174 0 71 -3 86 -27 122 -40 60 -94 87 -174 88 -56
0 -72 -4 -117 -32z"/>
<path d="M3994 1238 c-38 -44 -44 -56 -50 -94 -4 -33 0 -45 26 -77 18 -20 35
-35 40 -32 5 3 11 1 15 -5 3 -5 24 -10 46 -10 32 0 47 7 75 34 29 28 35 41 36
78 0 25 -5 55 -11 67 -32 58 -139 82 -177 39z"/>
<path d="M2775 1221 c-22 -10 -46 -29 -52 -43 -18 -40 -5 -99 29 -135 32 -33
86 -53 97 -35 3 5 15 12 27 16 85 26 90 160 8 199 -44 21 -59 21 -109 -2z"/>
<path d="M4731 1191 c-8 -5 -11 -16 -8 -24 8 -22 57 -10 57 14 0 20 -25 25
-49 10z"/>
<path d="M2117 1153 c-12 -11 -8 -23 8 -23 8 0 15 7 15 15 0 16 -12 20 -23 8z"/>
<path d="M3430 825 c0 -8 9 -15 20 -15 11 0 20 7 20 15 0 8 -9 15 -20 15 -11
0 -20 -7 -20 -15z"/>
</g>
</svg>
