<svg xmlns="http://www.w3.org/2000/svg" fill="currentColor" fill-rule="evenodd" viewBox="0 0 940 320"><path d="M127.132 209.786h-54.94l-7.56 25.766H15.335l58.667-156.09H126.6l58.667 156.09h-50.469zm-10.115-33.752-17.249-56.112-17.142 56.112zm68.25-53.557h45.783l23.318 75.277 21.614-75.277h42.696l-44.825 120.848q-7.666 20.656-15.652 27.896-11.286 10.222-34.391 10.222-9.37 0-28.96-2.556l-3.408-30.238q9.37 2.981 20.869 2.981 7.666 0 12.35-3.514 4.792-3.513 8.093-12.564zm181.537 36.627-41.418-4.365q2.342-10.86 6.708-17.036 4.472-6.282 12.777-10.86 5.962-3.3 16.396-5.11t22.573-1.81q19.485 0 31.303 2.235 11.819 2.13 19.698 9.05 5.536 4.792 8.73 13.629 3.195 8.73 3.195 16.716v49.936q0 7.986.958 12.564 1.065 4.472 4.472 11.5h-40.673q-2.449-4.366-3.194-6.602-.746-2.342-1.49-7.24-8.519 8.198-16.93 11.712-11.5 4.685-26.725 4.685-20.23 0-30.77-9.37-10.435-9.37-10.435-23.105 0-12.883 7.56-21.188t27.895-12.35q24.383-4.899 31.623-6.815 7.24-2.023 15.332-5.217 0-7.986-3.3-11.18-3.301-3.194-11.606-3.194-10.647 0-15.971 3.407-4.153 2.662-6.708 10.008m37.585 22.786q-8.944 3.194-18.633 5.643-13.202 3.513-16.716 6.92-3.62 3.514-3.62 7.986 0 5.11 3.514 8.412 3.62 3.194 10.54 3.194 7.24 0 13.416-3.514 6.282-3.513 8.837-8.518 2.662-5.11 2.662-13.202zm71.444-102.428h48.233v54.621h52.704v-54.62h48.446v156.09H576.77v-63.14h-52.704v63.14h-48.233zm297.7 156.09h-40.46V217.24q-9.05 11.286-18.313 16.077-9.157 4.792-22.572 4.792-17.888 0-28.11-10.648-10.115-10.753-10.115-33.006v-71.977h43.548v62.181q0 10.647 3.94 15.12 3.94 4.471 11.073 4.471 7.773 0 12.67-5.962 5.005-5.963 5.005-21.402v-54.408h43.334zm26.512-156.09h43.76v54.089q6.496-6.815 14.694-10.222 8.305-3.407 18.314-3.407 20.656 0 34.178 14.906 13.522 14.8 13.522 42.59 0 18.526-6.176 32.687-6.175 14.055-17.142 21.082-10.86 6.92-24.17 6.92-11.392 0-20.868-4.897-7.134-3.833-15.545-14.374v16.716h-40.567zm43.442 99.234q0 14.586 5.43 21.188 5.536 6.495 13.948 6.495 7.772 0 12.99-6.389 5.323-6.495 5.323-21.72 0-13.416-5.217-19.698-5.11-6.282-12.457-6.282-8.838 0-14.48 6.601-5.537 6.495-5.537 19.805" aria-label="AyaHub" style="font-size:218.058px;font-family:&quot;Arial Black&quot;;-inkscape-font-specification:&quot;Arial Black, &quot;;letter-spacing:0;stroke-width:3.40715" transform="scale(1.00016 .99984)"/></svg>