<?xml version="1.0" encoding="UTF-8" standalone="no"?>
<svg
   fill="currentColor"
   fill-rule="evenodd"
   viewBox="0 0 940 320"
   version="1.1"
   id="svg1"
   xmlns="http://www.w3.org/2000/svg"
   xmlns:svg="http://www.w3.org/2000/svg">
  <defs
     id="defs1" />
  <path
     style="font-size:218.058px;font-family:'Arial Black';-inkscape-font-specification:'Arial Black, ';letter-spacing:0px;stroke-width:3.40715"
     d="M 127.13194,209.78583 H 72.191541 l -7.559628,25.76661 H 15.334622 L 74.001593,79.4621 h 52.597977 l 58.66697,156.09034 h -50.4685 z m -10.115,-33.75215 -17.248728,-56.1116 -17.142255,56.1116 z m 68.24961,-53.55623 h 45.78366 l 23.31772,75.27686 21.61415,-75.27686 h 42.69593 l -44.8254,120.84757 q -7.6661,20.65588 -15.65163,27.89609 -11.2862,10.22147 -34.39098,10.22147 -9.36968,0 -28.96083,-2.55537 l -3.40715,-30.23851 q 9.36968,2.98126 20.86883,2.98126 7.6661,0 12.35094,-3.51363 4.79131,-3.51363 8.092,-12.56389 z m 181.53754,36.62693 -41.41824,-4.36542 q 2.34242,-10.86031 6.70784,-17.03578 4.47189,-6.28195 12.77683,-10.86031 5.96253,-3.30069 16.39694,-5.11074 10.43442,-1.81005 22.57241,-1.81005 19.48468,0 31.30325,2.23595 11.81857,2.12947 19.69762,9.05025 5.53663,4.79132 8.73084,13.62863 3.19421,8.73084 3.19421,16.71636 v 49.93613 q 0,7.98553 0.95826,12.56389 1.06474,4.47189 4.47189,11.49915 h -40.67292 q -2.4489,-4.36541 -3.19421,-6.60136 -0.74532,-2.34242 -1.49063,-7.24021 -8.51789,8.19847 -16.92931,11.7121 -11.49915,4.68484 -26.72488,4.68484 -20.22999,0 -30.77088,-9.36968 -10.43442,-9.36968 -10.43442,-23.10478 0,-12.88331 7.55963,-21.18825 7.55963,-8.30494 27.89609,-12.35094 24.38246,-4.89779 31.62267,-6.81431 7.24021,-2.023 15.3322,-5.21721 0,-7.98552 -3.30068,-11.17973 -3.30068,-3.19421 -11.60563,-3.19421 -10.64736,0 -15.97104,3.40716 -4.15247,2.66184 -6.70784,10.00852 z m 37.58519,22.78535 q -8.94378,3.19421 -18.63288,5.64311 -13.20273,3.51363 -16.71636,6.92078 -3.62011,3.51363 -3.62011,7.98552 0,5.11074 3.51363,8.41142 3.62011,3.19421 10.54089,3.19421 7.24021,0 13.41568,-3.51363 6.28195,-3.51363 8.83731,-8.51789 2.66184,-5.11073 2.66184,-13.20273 z M 475.83307,79.4621 h 48.23256 v 54.62097 h 52.70444 V 79.4621 h 48.44551 v 156.09034 h -48.44551 v -63.13886 h -52.70444 v 63.13886 h -48.23256 z m 297.7003,156.09034 h -40.45998 v -18.31346 q -9.05026,11.2862 -18.31346,16.07752 -9.15673,4.79131 -22.57241,4.79131 -17.88757,0 -28.10904,-10.64736 -10.115,-10.75384 -10.115,-33.00683 v -71.97617 h 43.54772 v 62.1806 q 0,10.64736 3.93952,15.11925 3.93953,4.4719 11.07326,4.4719 7.77258,0 12.67036,-5.96253 5.00427,-5.96252 5.00427,-21.4012 v -54.40802 h 43.33476 z M 800.04526,79.4621 h 43.76066 v 54.0886 q 6.49489,-6.81431 14.69336,-10.22146 8.30495,-3.40716 18.31347,-3.40716 20.65588,0 34.17803,14.90631 13.52215,14.79983 13.52215,42.58945 0,18.52641 -6.17547,32.68741 -6.17547,14.05452 -17.14225,21.08178 -10.86031,6.92078 -24.16952,6.92078 -11.39267,0 -20.86883,-4.89779 -7.13373,-3.83305 -15.54515,-14.37394 v 16.71636 h -40.56645 z m 43.44124,99.23342 q 0,14.58689 5.43016,21.18826 5.53662,6.49489 13.94804,6.49489 7.77258,0 12.98978,-6.38842 5.32369,-6.49489 5.32369,-21.72062 0,-13.41568 -5.21721,-19.69762 -5.11074,-6.28195 -12.45742,-6.28195 -8.83731,0 -14.48041,6.60137 -5.53663,6.49489 -5.53663,19.80409 z"
     id="text2"
     transform="scale(1.0001622,0.99983783)"
     aria-label="AyaHub" />
</svg>
